<svg xmlns="http://www.w3.org/2000/svg" viewBox="0 0 1024 1024" width="1024" height="1024" role="img" aria-label="QuickReport"><title>QuickReport</title><rect x="292.0" y="120" width="440" height="440" rx="96.80" fill="#0064A7"/><rect x="409.04" y="237.04" width="205.92" height="205.92" rx="27.50" fill="none" stroke="#FFFFFF" stroke-width="30.80"/><circle cx="512.00" cy="340.00" r="37.84" fill="#FFFFFF"/><path d="M98.15000000000006 705.95Q98.15000000000006 714.5 100.25000000000006 721.475Q102.35000000000005 728.45 106.32500000000005 733.325Q110.30000000000005 738.2 116.00000000000006 740.9000000000001Q121.70000000000005 743.6 128.90000000000006 743.6Q135.95000000000005 743.6 141.65000000000003 740.9000000000001Q147.35000000000005 738.2 151.32500000000005 733.325Q155.30000000000007 728.45 157.40000000000006 721.475Q159.50000000000006 714.5 159.50000000000006 705.95Q159.50000000000006 697.4 157.40000000000006 690.425Q155.30000000000007 683.45 151.32500000000005 678.575Q147.35000000000005 673.7 141.65000000000003 671.0Q135.95000000000005 668.3 128.90000000000006 668.3Q121.70000000000005 668.3 116.00000000000006 671.0Q110.30000000000005 673.7 106.32500000000005 678.6500000000001Q102.35000000000005 683.6 100.25000000000006 690.5Q98.15000000000006 697.4 98.15000000000006 705.95ZM179.30000000000007 705.95Q179.30000000000007 717.2 176.45000000000005 726.2Q173.60000000000005 735.2 168.50000000000006 741.875Q163.40000000000003 748.55 156.57500000000005 752.75Q149.75000000000006 756.95 141.65000000000003 758.75Q142.10000000000005 761.9 144.80000000000007 764.15Q147.50000000000006 766.4 151.62500000000006 767.9Q155.75000000000006 769.4 161.07500000000005 770.375Q166.40000000000003 771.35 172.25000000000006 771.8L168.05000000000007 786.05Q148.70000000000005 784.55 137.30000000000007 778.625Q125.90000000000006 772.7 122.75000000000006 759.8Q113.45000000000005 758.9 105.42500000000005 755.0Q97.40000000000006 751.1 91.40000000000006 744.35Q85.40000000000006 737.6 81.95000000000006 728.0Q78.50000000000006 718.4 78.50000000000006 705.95Q78.50000000000006 692.6 82.55000000000005 682.475Q86.60000000000005 672.35 93.57500000000005 665.45Q100.55000000000005 658.55 109.70000000000005 655.0999999999999Q118.85000000000005 651.65 129.05000000000007 651.65Q139.25000000000006 651.65 148.40000000000006 655.0999999999999Q157.55000000000007 658.55 164.37500000000006 665.45Q171.20000000000005 672.35 175.25000000000006 682.475Q179.30000000000007 692.6 179.30000000000007 705.95Z M263.45000000000005 755.6Q258.20000000000005 756.95 249.80000000000007 758.375Q241.40000000000006 759.8 231.35000000000008 759.8Q221.90000000000006 759.8 215.52500000000006 757.0999999999999Q209.15000000000006 754.4 205.32500000000005 749.5999999999999Q201.50000000000006 744.8 199.85000000000008 738.125Q198.20000000000007 731.45 198.20000000000007 723.5V679.55H216.35000000000008V720.65Q216.35000000000008 733.25 220.0250000000001 738.65Q223.70000000000007 744.05 232.85000000000008 744.05Q236.15000000000006 744.05 239.82500000000005 743.75Q243.50000000000006 743.45 245.30000000000007 743.0V679.55H263.45000000000005Z M304.8500000000001 758.0H286.70000000000005V679.55H304.8500000000001ZM306.80000000000007 656.6Q306.80000000000007 661.7 303.50000000000006 664.7Q300.20000000000005 667.7 295.70000000000005 667.7Q291.05000000000007 667.7 287.75000000000006 664.7Q284.45000000000005 661.7 284.45000000000005 656.6Q284.45000000000005 651.35 287.75000000000006 648.35Q291.05000000000007 645.35 295.70000000000005 645.35Q300.20000000000005 645.35 303.50000000000006 648.35Q306.80000000000007 651.35 306.80000000000007 656.6Z M323.6000000000001 718.85Q323.6000000000001 710.15 326.30000000000007 702.575Q329.0000000000001 695.0 334.0250000000001 689.45Q339.05000000000007 683.9 346.2500000000001 680.75Q353.4500000000001 677.6 362.4500000000001 677.6Q373.55000000000007 677.6 383.4500000000001 681.65L379.55000000000007 696.5Q376.4000000000001 695.15 372.42500000000007 694.25Q368.4500000000001 693.35 363.9500000000001 693.35Q353.30000000000007 693.35 347.7500000000001 700.0250000000001Q342.2000000000001 706.7 342.2000000000001 718.85Q342.2000000000001 730.55 347.4500000000001 737.375Q352.7000000000001 744.2 365.1500000000001 744.2Q369.80000000000007 744.2 374.30000000000007 743.3Q378.80000000000007 742.4 382.1000000000001 741.05L384.6500000000001 756.05Q381.6500000000001 757.55 375.5750000000001 758.75Q369.5000000000001 759.95 363.05000000000007 759.95Q353.0000000000001 759.95 345.5750000000001 756.875Q338.1500000000001 753.8 333.2750000000001 748.325Q328.4000000000001 742.85 326.0000000000001 735.2750000000001Q323.6000000000001 727.7 323.6000000000001 718.85Z M416.90000000000003 710.15Q420.35 706.55 424.25 702.425Q428.15000000000003 698.3 431.90000000000003 694.175Q435.65000000000003 690.05 439.02500000000003 686.2249999999999Q442.40000000000003 682.4 444.80000000000007 679.55H466.25000000000006Q458.75000000000006 687.95 450.42500000000007 696.95Q442.1 705.95 433.70000000000005 714.5Q438.20000000000005 718.25 443.15000000000003 723.575Q448.1 728.9 452.75 734.9Q457.40000000000003 740.9 461.45000000000005 746.9Q465.50000000000006 752.9 468.20000000000005 758.0H447.20000000000005Q444.50000000000006 753.35 440.975 748.25Q437.45000000000005 743.15 433.40000000000003 738.3499999999999Q429.35 733.55 425.15000000000003 729.275Q420.95000000000005 725.0 416.90000000000003 722.0V758.0H398.75000000000006V644.6L416.90000000000003 641.6Z" fill="#1B2733"/><path d="M510.95000000000005 653.0Q533.45 653.0 545.375 661.25Q557.3000000000001 669.5 557.3000000000001 686.45Q557.3000000000001 707.6 536.45 715.1Q539.3000000000001 718.55 542.9000000000001 723.5Q546.5 728.45 550.25 734.225Q554.0 740.0 557.45 746.075Q560.9 752.15 563.6 758.0H542.45Q539.6 752.6 536.3 747.125Q533.0 741.65 529.625 736.4749999999999Q526.25 731.3 522.95 726.7249999999999Q519.65 722.15 516.8000000000001 718.55Q514.7 718.7 513.2 718.7Q511.70000000000005 718.7 510.35 718.7H501.20000000000005V758.0H482.3V655.55Q489.20000000000005 654.05 497.0 653.525Q504.8 653.0 510.95000000000005 653.0ZM512.3000000000001 669.35Q506.3 669.35 501.20000000000005 669.8V703.4H509.45000000000005Q516.35 703.4 521.6 702.65Q526.85 701.9 530.375 699.95Q533.9 698.0 535.7 694.7Q537.5 691.4 537.5 686.3Q537.5 681.5 535.7 678.2Q533.9 674.9 530.525 672.95Q527.15 671.0 522.5 670.175Q517.85 669.35 512.3000000000001 669.35Z M573.0500000000001 719.15Q573.0500000000001 708.8 576.125 701.0Q579.2 693.2 584.3 688.0250000000001Q589.4 682.85 596.0 680.225Q602.6 677.6 609.5 677.6Q625.7 677.6 634.7750000000001 687.6500000000001Q643.85 697.7 643.85 717.65Q643.85 719.15 643.7750000000001 721.025Q643.7 722.9 643.5500000000001 724.4H591.8000000000001Q592.5500000000001 733.85 598.475 739.0250000000001Q604.4 744.2 615.65 744.2Q622.25 744.2 627.725 743.0Q633.2 741.8 636.35 740.45L638.75 755.3Q637.25 756.05 634.625 756.875Q632.0 757.7 628.625 758.375Q625.25 759.05 621.35 759.5Q617.45 759.95 613.4 759.95Q603.0500000000001 759.95 595.4000000000001 756.875Q587.75 753.8 582.8 748.325Q577.85 742.85 575.45 735.425Q573.0500000000001 728.0 573.0500000000001 719.15ZM625.7 711.05Q625.7 707.3 624.6500000000001 703.925Q623.6 700.55 621.575 698.075Q619.5500000000001 695.6 616.625 694.175Q613.7 692.75 609.65 692.75Q605.45 692.75 602.3 694.325Q599.15 695.9 596.975 698.45Q594.8000000000001 701.0 593.6 704.3Q592.4 707.6 591.95 711.05Z M715.1 719.15Q715.1 707.0 709.625 700.25Q704.15 693.5 692.0 693.5Q689.45 693.5 686.675 693.725Q683.9 693.95 681.2 694.7V739.55Q683.6 741.2 687.575 742.625Q691.55 744.05 696.05 744.05Q705.95 744.05 710.5250000000001 737.3Q715.1 730.55 715.1 719.15ZM733.7 718.85Q733.7 727.85 731.375 735.35Q729.05 742.85 724.7 748.25Q720.35 753.65 713.825 756.65Q707.3 759.65 699.05 759.65Q693.5 759.65 688.85 758.3Q684.2 756.95 681.2 755.3V785.75H663.05V682.1Q668.6 680.6 676.7 679.25Q684.8 677.9 693.8 677.9Q703.1 677.9 710.45 680.75Q717.8 683.6 722.9749999999999 688.925Q728.15 694.25 730.925 701.825Q733.7 709.4 733.7 718.85Z M823.4 718.7Q823.4 728.0 820.7 735.65Q818.0 743.3 813.05 748.7Q808.1 754.1 801.125 757.1Q794.15 760.1 785.75 760.1Q777.35 760.1 770.45 757.1Q763.55 754.1 758.5999999999999 748.7Q753.65 743.3 750.875 735.65Q748.1 728.0 748.1 718.7Q748.1 709.4 750.875 701.825Q753.65 694.25 758.675 688.85Q763.6999999999999 683.45 770.5999999999999 680.5250000000001Q777.5 677.6 785.75 677.6Q794.0 677.6 800.9749999999999 680.5250000000001Q807.9499999999999 683.45 812.9 688.85Q817.85 694.25 820.625 701.825Q823.4 709.4 823.4 718.7ZM804.8 718.7Q804.8 707.0 799.775 700.175Q794.75 693.35 785.75 693.35Q776.75 693.35 771.7249999999999 700.175Q766.6999999999999 707.0 766.6999999999999 718.7Q766.6999999999999 730.55 771.7249999999999 737.45Q776.75 744.35 785.75 744.35Q794.75 744.35 799.775 737.45Q804.8 730.55 804.8 718.7Z M886.8499999999999 695.9Q884.5999999999999 695.15 880.6249999999999 694.325Q876.6499999999999 693.5 871.3999999999999 693.5Q868.3999999999999 693.5 865.0249999999999 694.1Q861.6499999999999 694.7 860.3 695.15V758.0H842.1499999999999V683.3Q847.3999999999999 681.35 855.2749999999999 679.625Q863.1499999999999 677.9 872.7499999999999 677.9Q874.55 677.9 876.9499999999999 678.125Q879.3499999999999 678.35 881.7499999999999 678.725Q884.1499999999999 679.1 886.3999999999999 679.625Q888.6499999999999 680.15 889.9999999999999 680.6Z M901.6999999999999 658.85 919.8499999999999 655.85V679.55H947.75V694.7H919.8499999999999V726.65Q919.8499999999999 736.1 922.8499999999999 740.1500000000001Q925.8499999999999 744.2 933.05 744.2Q938.0 744.2 941.825 743.1500000000001Q945.65 742.1 947.9 741.2L950.9 755.6Q947.75 756.95 942.65 758.375Q937.55 759.8 930.65 759.8Q922.25 759.8 916.625 757.55Q911.0 755.3 907.7 751.025Q904.4 746.75 903.05 740.675Q901.6999999999999 734.6 901.6999999999999 726.8Z" fill="#0064A7"/></svg>
